<svg id="Group_16" data-name="Group 16" xmlns="http://www.w3.org/2000/svg" width="39" height="39" viewBox="0 0 39 39">
  <rect id="Rectangle" width="39" height="39" rx="19.5" fill="#ffc628"/>
  <g id="Group_3" data-name="Group 3" transform="translate(8 8)">
    <path id="XMLID_49_" d="M12.89,23H11.1a.821.821,0,0,1-.8-.563l-.175-.611a1.1,1.1,0,0,1-.988-1.059v-.672a.679.679,0,0,1,.7-.648h4.3a.687.687,0,0,1,.7.653v.672a1.1,1.1,0,0,1-.983,1.055l-.18.611A.822.822,0,0,1,12.89,23Zm7.1-3.971a.728.728,0,0,1-.489-.184l-1.724-1.586a.6.6,0,0,1,0-.9.735.735,0,0,1,.983,0l1.719,1.585a.6.6,0,0,1,0,.9A.731.731,0,0,1,19.992,19.03ZM4,19.03a.733.733,0,0,1-.489-.184.6.6,0,0,1,0-.9l1.724-1.585a.73.73,0,0,1,.978,0,.6.6,0,0,1,0,.9L4.492,18.845A.73.73,0,0,1,4,19.03Zm9.906-.445H10.085a.993.993,0,0,1-1-.786,5.123,5.123,0,0,0-1.523-2.831,5.349,5.349,0,0,1-.137-7.727,6.437,6.437,0,0,1,4.537-1.866h.047a5.931,5.931,0,0,1,6.153,5.666,5.4,5.4,0,0,1-1.729,3.932,5.028,5.028,0,0,0-1.513,2.821A.993.993,0,0,1,13.91,18.585ZM12,6.971A4.283,4.283,0,0,0,7.554,11.06a.7.7,0,0,0,1.39,0A2.945,2.945,0,0,1,12,8.248a.641.641,0,1,0,0-1.277Zm11.306,4.7H20.871a.641.641,0,1,1,0-1.277h2.434a.641.641,0,1,1,0,1.277Zm-20.177,0H.695a.641.641,0,1,1,0-1.277H3.128a.641.641,0,1,1,0,1.277ZM18.273,5.906a.736.736,0,0,1-.494-.185.6.6,0,0,1,0-.9L19.5,3.232a.739.739,0,0,1,.983,0,.6.6,0,0,1,0,.9L18.761,5.721A.726.726,0,0,1,18.273,5.906ZM5.728,5.9a.731.731,0,0,1-.49-.185L3.509,4.132a.6.6,0,0,1,0-.9.736.736,0,0,1,.983,0L6.216,4.813a.6.6,0,0,1,0,.9A.73.73,0,0,1,5.728,5.9ZM12,3.516a.669.669,0,0,1-.695-.639V.639a.7.7,0,0,1,1.39,0V2.877A.669.669,0,0,1,12,3.516Z" fill="#fff"/>
  </g>
</svg>
